<?xml version="1.0" standalone="no"?><!DOCTYPE svg PUBLIC "-//W3C//DTD SVG 1.1//EN" "http://www.w3.org/Graphics/SVG/1.1/DTD/svg11.dtd"><svg t="1691572266569" class="icon" viewBox="0 0 1024 1024" version="1.1" xmlns="http://www.w3.org/2000/svg" p-id="4262" xmlns:xlink="http://www.w3.org/1999/xlink" width="200" height="200"><path d="M375.168 434.432c0 140.032 113.408 253.44 253.44 253.44s253.44-113.408 253.44-253.44-113.408-253.44-253.44-253.44-253.44 113.536-253.44 253.44z m0 0" fill="#FEB14E" p-id="4263"></path><path d="M496.384 734.08c-84.48 0-163.968-32.896-223.744-92.672-59.776-59.776-92.672-139.136-92.672-223.744 0-84.608 32.896-163.968 92.672-223.744 59.776-59.776 139.136-92.672 223.744-92.672 84.608 0 163.968 32.896 223.744 92.672 59.776 59.776 92.672 139.136 92.672 223.744 0 84.608-33.024 163.968-92.8 223.744-59.776 59.776-139.136 92.672-223.616 92.672z m0-540.544c-59.904 0-116.224 23.296-158.464 65.664-42.368 42.368-65.664 98.56-65.664 158.464s23.296 116.224 65.664 158.464c42.24 42.24 98.56 65.664 158.464 65.664s116.224-23.296 158.464-65.664c42.24-42.24 65.664-98.56 65.664-158.464s-23.296-116.224-65.664-158.464c-42.368-42.368-98.56-65.664-158.464-65.664zM828.928 880.64H202.24c-25.472 0-46.08-20.608-46.08-46.08s20.608-46.08 46.08-46.08h626.688c25.472 0 46.08 20.608 46.08 46.08s-20.48 46.08-46.08 46.08z m0 0" fill="#242F44" p-id="4264"></path></svg>