<?xml version="1.0" standalone="no"?><!DOCTYPE svg PUBLIC "-//W3C//DTD SVG 1.1//EN" "http://www.w3.org/Graphics/SVG/1.1/DTD/svg11.dtd"><svg t="1691312888231" class="icon" viewBox="0 0 1024 1024" version="1.1" xmlns="http://www.w3.org/2000/svg" p-id="2506" xmlns:xlink="http://www.w3.org/1999/xlink" width="200" height="200"><path d="M889.9 922.4H199.6c-9.4 0-17-7.6-17-17s7.6-17 17-17h690.3c31.8 0 57.7-24.8 57.7-55.3s-25.9-55.3-57.7-55.3H155.2c-50.5 0-91.7-40-91.7-89.3s41.1-89.3 91.7-89.3h197.3c9.4 0 17 7.6 17 17s-7.6 17-17 17H155.2c-31.8 0-57.7 24.8-57.7 55.3s25.9 55.3 57.7 55.3h734.7c50.5 0 91.7 40 91.7 89.3s-41.2 89.3-91.7 89.3z m-764 0H63.6c-9.4 0-17-7.6-17-17s7.6-17 17-17h62.3c9.4 0 17 7.6 17 17s-7.6 17-17 17z" fill="#05AF61" p-id="2507"></path><path d="M533.2 752.4c-34 0-306-184.2-306-348.5s133.2-297.5 297.5-297.5 297.5 133.2 297.5 297.5-255 348.5-289 348.5z m0-470.7c-44 0-79.7 35.7-79.7 79.7s35.7 79.7 79.7 79.7 79.7-35.7 79.7-79.7-35.7-79.7-79.7-79.7z" fill="#05AF61" p-id="2508"></path><path d="M266.1 522.9C343 646.1 506.1 752.4 532 752.4c25.8 0 179.1-106.3 251.4-229.5H266.1z" fill="#9DFFD9" opacity=".2" p-id="2509"></path><path d="M554.2 437.9c-6.8 1.9-13.7 3.2-21.1 3.2s-14.3-1.3-21.1-3.2H230.9c32.5 154.7 270.6 314.5 302.2 314.5s255-159.8 285.5-314.5H554.2z" fill="#9DFFD9" opacity=".15" p-id="2510"></path><path d="M612.9 361.4c0 44-35.7 79.7-79.7 79.7s-79.7-35.7-79.7-79.7c0-2.9 0.6-5.7 0.9-8.5H231.9c-2.9 16.6-4.7 33.6-4.7 51 0 164.3 272 348.5 306 348.5s289-184.2 289-348.5c0-17.4-1.8-34.4-4.7-51H612c0.3 2.9 0.9 5.6 0.9 8.5z" fill="#9DFFD9" opacity=".1" p-id="2511"></path></svg>