<?xml version="1.0" standalone="no"?><!DOCTYPE svg PUBLIC "-//W3C//DTD SVG 1.1//EN" "http://www.w3.org/Graphics/SVG/1.1/DTD/svg11.dtd"><svg t="1690855608029" class="icon" viewBox="0 0 1024 1024" version="1.1" xmlns="http://www.w3.org/2000/svg" p-id="2261" xmlns:xlink="http://www.w3.org/1999/xlink" width="200" height="200"><path d="M539.01827 1012.939119l-30.69467-29.058688 11.868872-40.517565c2.045978-6.956925 0.409996-15.960829-4.092956-23.737745a32.945646 32.945646 0 0 0-18.825798-15.551833l-41.336556-10.23189-9.821894-41.335556c-2.864969-12.687864-5.319943-24.556736-6.54893-36.834604l-1.227987-11.868873v-2.454973a271.80508 271.80508 0 0 1-1.226987-25.783723c0-8.594908 0.408996-17.189815 1.226987-27.830701l1.227987-12.277868c1.636982-11.869872 3.68396-24.146741 6.54893-36.834605l9.821894-41.335556 41.336556-10.23189c7.366921-1.636982 14.323846-7.366921 18.825798-15.551833 4.501952-7.776916 6.139934-16.77982 4.092956-24.14674l-11.868872-40.517565 30.69467-29.058688a330.44345 330.44345 0 0 1 73.259213-52.386437h0.409995l4.091956-2.045978s0.409996 0 0.409996-0.409996l2.454974-1.226987c7.775916-4.092956 15.961829-7.366921 26.193718-11.459877 8.593908-3.273965 17.597811-6.54793 26.601715-9.003903l20.872775-6.138934c2.864969-8.594908 5.729938-17.598811 8.594908-26.602714 4.501952-1.226987 9.412899-3.273965 13.914851-6.956925 4.092956-3.273965 9.003903-7.775916 13.505854-14.324846 4.501952-6.138934 9.003903-14.733842 12.687864-26.601715 3.273965-11.049881 4.501952-21.691767 3.273965-30.69567-0.818991-9.412899-2.864969-17.189815-5.729938-23.737745-2.864969-7.775916-6.957925-14.733842-12.277869-21.690767 0.409996-25.783723-0.818991-51.15945-4.092956-77.352169-2.864969-21.281771-7.775916-44.609521-14.733841-68.757261-6.956925-24.555736-17.597811-46.656499-31.103666-66.301288-12.687864-18.007807-27.01171-33.559639-42.973539-45.019517-16.369824-12.277868-32.332653-21.281771-48.293481-28.239696-16.370824-6.54793-32.741648-11.049881-49.521468-13.914851C519.372481 1.227987 503.821648 0 487.859819 0c-15.960829 0-31.513661 1.227987-48.293481 4.092956-16.77982 2.864969-33.149644 7.366921-49.521468 13.914851-16.369824 6.957925-32.331653 16.369824-48.293481 28.239696-15.961829 11.868873-30.285675 27.420705-42.973539 45.429512a219.777639 219.777639 0 0 0-31.103665 66.300288c-6.957925 24.146741-12.277868 47.47549-14.733842 68.757261-3.68296 26.192719-4.910947 51.567446-4.501952 77.352169-5.319943 6.956925-9.412899 13.914851-12.277868 22.099763-2.455974 6.139934-4.501952 14.324846-5.319943 23.737745-1.228987 9.003903 0 19.644789 3.272965 30.69567 3.68396 11.459877 7.776916 20.46278 12.687864 26.601715 4.501952 6.54893 9.412899 11.049881 13.505855 14.324846 4.501952 3.68296 9.412899 5.729938 13.91485 6.956925 3.273965 10.640886 6.957925 21.282771 10.23189 31.513661 3.273965 8.185912 6.957925 17.189815 11.049882 25.784723 4.092956 9.003903 9.003903 15.551833 14.324846 20.053785 11.459877 9.821894 21.690767 18.825798 30.69467 27.420705 9.413899 9.003903 14.324846 21.281771 15.961829 37.652596 0.409996 10.23189 0.817991 19.644789 0.817991 28.239697 0 9.003903-1.226987 17.189815-4.501952 25.783723-2.863969 7.775916-8.184912 16.370824-16.369824 24.14674-7.366921 8.185912-18.826798 16.77982-33.151644 25.783723-17.188815 11.459877-37.652596 20.054785-61.38934 26.602715-23.328749 6.139934-125.64565 40.92656-147.746413 48.703476-21.690767 6.956925-40.92656 17.189815-57.297385 30.285675-16.369824 12.686864-26.602714 31.513661-30.69467 56.888389-6.54893 43.382534-7.776916 50.339459-4.092956 78.16916 3.273965 27.421705 9.003903 44.201525 16.369824 49.931464 6.54993 4.501952 23.738745 10.23189 53.205429 16.77982 29.058688 6.54893 206.68078 40.108569 416.225528 40.92656 20.872776 0 41.336556-0.408996 61.799336-1.226987-3.68296-2.864969-7.365921-5.729938-10.639885-9.003903z" fill="#00AAA6" p-id="2262"></path><path d="M1023.183069 775.563669c0-6.957925-0.409996-13.505855-1.227987-20.46378l-1.227987-11.459877c-1.226987-9.821894-2.864969-19.644789-5.319943-29.057688a99.861927 99.861927 0 0 1-62.209331-48.293481c-14.732842-25.374727-17.597811-54.02342-10.639886-78.170161-6.957925-6.957925-14.734842-13.096859-22.509758-18.826797a246.338354 246.338354 0 0 0-59.754358-33.969636c-0.408996-0.408996-1.226987-0.408996-1.636983-0.817991-6.956925-2.864969-13.505855-4.910947-20.872776-7.366921-17.597811 18.007807-43.381534 29.876679-73.259213 29.876679-29.466683 0-55.659402-11.868873-73.259213-29.876679a211.707726 211.707726 0 0 0-20.871775 7.366921c-0.409996 0.409996-1.227987 0.409996-1.636983 0.818991a239.462428 239.462428 0 0 0-59.753358 33.969636c-7.775916 5.728938-15.142837 12.276868-22.509758 18.825797 6.957925 24.146741 4.092956 52.386437-10.640886 78.169161-14.733842 25.375727-38.061591 42.155547-62.209332 48.294481-2.454974 9.412899-4.091956 19.235793-5.319942 29.057688l-1.227987 11.459877c-0.408996 6.54793-0.817991 13.505855-0.817992 20.46378s0.408996 13.505855 0.817992 20.46278l1.227987 11.459877c1.227987 9.821894 2.864969 19.644789 5.319942 29.057688 24.556736 6.139934 47.47549 22.509758 62.209332 48.293481 14.733842 25.374727 17.598811 54.02342 10.640886 78.17016 6.957925 6.957925 14.733842 13.096859 22.509758 18.826798 12.277868 9.412899 25.374727 17.189815 38.880582 24.555736h0.409996c6.54793 3.273965 13.504855 6.54893 20.46278 9.413899 0.409996 0.408996 1.227987 0.408996 1.636983 0.817991 6.957925 2.864969 13.505855 4.910947 20.872775 7.366921 17.598811-18.007807 43.382534-29.876679 73.259213-29.876679 29.466683 0 55.659402 11.868873 73.259213 29.876679a211.707726 211.707726 0 0 0 20.871776-7.366921c0.409996-0.409996 1.227987-0.409996 1.636983-0.817991 6.957925-2.864969 13.915851-6.139934 20.46378-9.413899h0.409995c13.914851-6.956925 26.601714-15.142837 38.879583-24.555736 7.775916-5.729938 15.142837-12.277868 22.509758-18.826798-6.956925-24.146741-4.091956-52.386437 10.640886-78.16916 14.733842-25.375727 38.062591-42.155547 62.209331-48.294481 2.454974-9.412899 4.092956-19.235793 5.319943-29.057688l1.227987-11.459877c0.818991-6.956925 1.227987-13.505855 1.227987-20.46278z m-258.248226 94.94898c-52.386437 0-94.94998-42.563543-94.94998-94.94898 0-52.386437 42.563543-94.95098 94.94998-94.95098 52.386437 0 94.94998 42.564543 94.94998 94.95098 0 52.385437-42.563543 94.94898-94.94998 94.94898z" fill="#00AAA6" p-id="2263"></path></svg>